# xmcd
#
# Track frame offsets:
#	150
#	8554
#	27083
#	49512
#	68903
#	89044
#	107723
#	127415
#	172156
#	196686
#	237888
#
# Disc length: 3467 seconds
#
# Revision: 1
# Processed by: cddbd v1.4PL0 Copyright (c) Steve Scherf et al.
# Submitted via: CDmax 2.0
#
DISCID=910d890b
DTITLE=The Blues Band - Koncert w Trójce
DYEAR=2003
DGENRE=Blues
TTITLE0=Sygna³ BOB - Powitanie
TTITLE1=Green Stuff
TTITLE2=I am the blues
TTITLE3=Come back baby (J.L. Hooker)
TTITLE4=Stepping out on main street
TTITLE5=Last chance to dance
TTITLE6=Half the man and twice the fool
TTITLE7=29 ways
TTITLE8=Resting on Jesus
TTITLE9=Sweet Home Chicago
TTITLE10=World Gone Crazy (bonus track from www.TheBluesBand.co.uk)
EXTD=
EXTT0=
EXTT1=
EXTT2=
EXTT3=
EXTT4=
EXTT5=
EXTT6=
EXTT7=
EXTT8=
EXTT9=
EXTT10=
PLAYORDER=
